HIERARCHY
ROOT Hips
{
	OFFSET 0.000000 0.000000 0.000000 
	CHANNELS 6 Xposition Yposition Zposition Zrotation Yrotation Xrotation
	JOINT LeftUpLeg
	{
		OFFSET 1.363060 -1.794630 0.839290 
		CHANNELS 3 Zrotation Yrotation Xrotation
		JOINT LeftLeg
		{
			OFFSET 2.448110 -6.726130 0.000000 
			CHANNELS 3 Zrotation Yrotation Xrotation
			JOINT LeftFoot
			{
				OFFSET 2.562200 -7.039590 0.000000 
				CHANNELS 3 Zrotation Yrotation Xrotation
				JOINT LeftToeBase
				{
					OFFSET 0.157640 -0.433110 2.322550 
					CHANNELS 3 Zrotation Yrotation Xrotation
					End Site
					{
						OFFSET 0.000000 0.000000 0.000000 
					}
				}
			}
		}
	}
	JOINT RightUpLeg
	{
		OFFSET -1.305520 -1.794630 0.839290 
		CHANNELS 3 Zrotation Yrotation Xrotation
		JOINT RightLeg
		{
			OFFSET -2.542530 -6.985550 0.000000 
			CHANNELS 3 Zrotation Yrotation Xrotation
			JOINT RightFoot
			{
				OFFSET -2.568260 -7.056230 0.000000 
				CHANNELS 3 Zrotation Yrotation Xrotation
				JOINT RightToeBase
				{
					OFFSET -0.164730 -0.452590 2.363150 
					CHANNELS 3 Zrotation Yrotation Xrotation
					End Site
					{
						OFFSET 0.000000 0.000000 0.000000 
					}
				}
			}
		}
	}
	JOINT Spine
	{
		OFFSET 0.028270 2.035590 -0.193380 
		CHANNELS 3 Zrotation Yrotation Xrotation
		JOINT Spine1
		{
			OFFSET 0.056720 2.048850 -0.042750 
			CHANNELS 3 Zrotation Yrotation Xrotation
			JOINT Neck1
			{
				OFFSET -0.054170 1.746240 0.172020 
				CHANNELS 3 Zrotation Yrotation Xrotation
				JOINT Head
				{
					OFFSET 0.104070 1.761360 -0.123970 
					CHANNELS 3 Zrotation Yrotation Xrotation
					End Site
					{
						OFFSET 0.000000 0.000000 0.000000 
					}
				}
			}
			JOINT LeftArm
			{
				OFFSET 3.362410 1.200890 -0.311210 
				CHANNELS 3 Zrotation Yrotation Xrotation
				JOINT LeftForeArm
				{
					OFFSET 4.983000 -0.000000 -0.000000 
					CHANNELS 3 Zrotation Yrotation Xrotation
					JOINT LeftHand
					{
						OFFSET 3.483560 -0.000000 -0.000000 
						CHANNELS 3 Zrotation Yrotation Xrotation
						JOINT LeftHandIndex1
						{
							OFFSET 0.715260 -0.000000 -0.000000 
							CHANNELS 3 Zrotation Yrotation Xrotation
							End Site
							{
								OFFSET 0.000000 0.000000 0.000000 
							}
						}
					}
				}
			}
			JOINT RightArm
			{
				OFFSET -3.136600 1.374050 -0.404650 
				CHANNELS 3 Zrotation Yrotation Xrotation
				JOINT RightForeArm
				{
					OFFSET -5.241900 -0.000000 -0.000000 
					CHANNELS 3 Zrotation Yrotation Xrotation
					JOINT RightHand
					{
						OFFSET -3.444170 -0.000000 -0.000000 
						CHANNELS 3 Zrotation Yrotation Xrotation
						JOINT RightHandIndex1
						{
							OFFSET -0.622530 -0.000000 -0.000000 
							CHANNELS 3 Zrotation Yrotation Xrotation
							End Site
							{
								OFFSET 0.000000 0.000000 0.000000 
							}
						}
					}
				}
			}
		}
	}
}
MOTION
Frames: 16
Frame Time: 0.041667
5.926150 10.471822 16.803119 -0.381730 1.499924 93.067133 5.035629 -15.148561 -8.337189 24.209020 19.923240 101.581044 -0.669444 6.246266 3.025378 0.080800 1.834000 5.047100 -11.845779 11.440314 -7.108844 -28.626063 -17.486587 116.177402 0.335534 -5.607701 -6.015650 -0.251900 3.229500 -8.918500 0.506907 0.458781 -4.330094 -0.775927 -0.099742 -0.153654 14.609987 -7.599738 -16.865775 6.526600 -3.908400 -0.630400 36.129273 -24.388939 -13.139129 12.693851 -19.327985 -2.478878 -0.009427 -1.770314 -5.645031 -7.125000 0.000000 0.000000 -32.355621 12.449848 18.913534 -16.122462 23.477161 -3.390772 -0.054559 0.437344 -33.995327 7.125000 0.000000 0.000000 
5.927163 10.464527 16.795723 -0.345050 1.503795 93.107982 4.971840 -15.527091 -8.271638 24.111705 19.955436 101.294271 -0.667322 6.177897 2.873946 0.077500 1.796000 4.942200 -11.590585 11.593296 -7.159221 -28.557357 -17.545806 115.936447 0.336723 -5.654360 -6.183179 -0.253800 3.241200 -8.951000 0.498551 0.309529 -4.357808 -0.917422 -0.178949 -0.151097 14.645859 -7.531412 -16.883593 6.545600 -3.857700 -0.562200 35.150425 -24.087642 -11.900343 12.837736 -19.398053 -2.528954 -0.016836 -1.782532 -5.652801 -7.125000 0.000000 0.000000 -31.787512 12.643623 19.399995 -16.146822 23.445307 -3.393981 -0.054440 0.454328 -33.795069 7.125000 0.000000 0.000000 
5.927467 10.458347 16.787720 -0.336400 1.497733 93.100955 4.875597 -15.838158 -8.189740 23.995690 19.989579 100.952791 -0.662506 6.091811 2.759603 0.075200 1.768600 4.866600 -11.312391 11.756118 -7.200014 -28.482159 -17.609317 115.674012 0.343895 -5.767138 -6.384662 -0.252700 3.234600 -8.932600 0.485398 0.125951 -4.384499 -1.100936 -0.276944 -0.172186 14.769390 -7.428059 -16.931579 6.616000 -3.783900 -0.492600 34.118593 -23.821428 -10.990615 12.909946 -19.368740 -2.550733 -0.041878 -1.782972 -5.338956 -7.125000 0.000000 0.000000 -31.219964 12.919534 19.810555 -16.183735 23.429844 -3.401770 -0.054812 0.472553 -33.624893 7.125000 0.000000 0.000000 
5.927062 10.453383 16.779311 -0.363855 1.478565 93.032194 4.722432 -16.073645 -8.072150 23.859014 20.024135 100.551737 -0.659685 6.025934 2.664941 0.074200 1.757000 4.834600 -11.021662 11.941012 -7.213035 -28.397832 -17.677523 115.382221 0.356274 -5.936416 -6.606924 -0.250100 3.217700 -8.885400 0.448433 -0.260144 -4.424869 -1.520339 -0.483010 -0.291732 15.165321 -7.176185 -16.937538 6.845800 -3.611200 -0.368800 32.938367 -23.185685 -9.588139 13.022086 -19.380644 -2.585318 -0.067576 -1.779681 -5.209764 -7.125000 0.000000 0.000000 -30.644849 13.598201 19.965564 -16.236534 23.438938 -3.414856 -0.057863 0.497560 -33.516230 7.125000 0.000000 0.000000 
5.926555 10.448824 16.769787 -0.395821 1.431677 92.924685 4.518994 -16.261548 -7.955549 23.706254 20.060882 100.103013 -0.661821 6.003599 2.573126 0.073400 1.748200 4.810300 -10.746881 12.107390 -7.207520 -28.300288 -17.747281 115.050739 0.370687 -6.128168 -6.832380 -0.246600 3.195700 -8.824100 0.407983 -0.678671 -4.492595 -1.953514 -0.709022 -0.562236 15.601990 -6.894476 -16.931081 7.106000 -3.422300 -0.246700 31.688277 -22.517446 -8.034758 13.159644 -19.415336 -2.627812 -0.097676 -1.772095 -5.134169 -7.125000 0.000000 0.000000 -30.027036 14.398439 20.097526 -16.318391 23.481912 -3.437246 -0.058726 0.521101 -33.366276 7.125000 0.000000 0.000000 
5.925948 10.444670 16.758947 -0.427936 1.373850 92.776531 4.288575 -16.400776 -7.833394 23.537176 20.097341 99.605592 -0.670788 6.039075 2.463885 0.074900 1.765700 4.858700 -10.456379 12.257356 -7.171915 -28.187561 -17.821344 114.672428 0.386632 -6.333936 -7.051041 -0.245200 3.186800 -8.799100 0.366375 -1.117355 -4.583286 -2.387483 -0.950812 -0.965864 16.067241 -6.593089 -16.898815 7.384900 -3.224000 -0.123100 30.396119 -21.825289 -6.391127 13.317799 -19.470364 -2.677172 -0.129524 -1.761300 -5.034726 -7.125000 0.000000 0.000000 -29.364230 15.293675 20.215609 -16.433114 23.563748 -3.470362 -0.057001 0.542336 -33.165050 7.125000 0.000000 0.000000 
5.925340 10.440719 16.746789 -0.463581 1.295791 92.588979 4.025672 -16.487747 -7.702531 23.351551 20.133964 99.058944 -0.688972 6.150585 2.322075 0.078300 1.805300 4.968000 -10.151246 12.400179 -7.095413 -28.057271 -17.899376 114.240511 0.401199 -6.524680 -7.255146 -0.244900 3.184700 -8.793300 0.333717 -1.477093 -4.686540 -2.699951 -1.154929 -1.450914 16.463321 -6.343772 -16.846042 7.622600 -3.061300 -0.008400 29.113831 -21.277079 -4.899057 13.479575 -19.527955 -2.727705 -0.162611 -1.748853 -4.782260 -7.125000 0.000000 0.000000 -28.650060 16.109227 20.388764 -16.572659 23.669865 -3.511240 -0.051574 0.558326 -32.836583 7.125000 0.000000 0.000000 
5.924529 10.437274 16.733315 -0.497764 1.220293 92.372079 3.770694 -16.524684 -7.570149 23.150620 20.168844 98.466067 -0.714061 6.318119 2.149175 0.084500 1.875400 5.161600 -9.793105 12.534743 -6.982530 -27.910128 -17.984416 113.755611 0.414105 -6.696445 -7.440916 -0.246300 3.193700 -8.818500 0.317103 -1.685709 -4.784338 -2.835230 -1.279200 -1.925676 16.708363 -6.184964 -16.838770 7.767200 -2.961700 0.064300 27.897310 -20.989630 -3.729666 13.634868 -19.580528 -2.775705 -0.196349 -1.735676 -4.331875 -7.125000 0.000000 0.000000 -27.893602 16.677236 20.666230 -16.727951 23.788066 -3.557627 -0.043973 0.569005 -32.358816 7.125000 0.000000 0.000000 
5.923820 10.433830 16.718422 -0.537643 1.147079 92.137115 3.524668 -16.506672 -7.437114 22.932410 20.202398 97.821532 -0.746711 6.545357 1.940864 0.092700 1.963200 5.404000 -9.382864 12.667219 -6.835422 -27.744320 -18.077276 113.212213 0.424538 -6.841308 -7.603281 -0.251100 3.224400 -8.904100 0.313249 -1.721826 -4.858582 -2.813206 -1.307359 -2.299165 16.789407 -6.133709 -16.903090 7.806100 -2.934500 0.086300 26.789855 -20.981091 -2.907704 13.783550 -19.633369 -2.820370 -0.230353 -1.720365 -3.752666 -7.125000 0.000000 0.000000 -27.111745 16.917279 21.026835 -16.889819 23.909712 -3.607941 -0.036817 0.576459 -31.746264 7.125000 0.000000 0.000000 
5.922908 10.429980 16.702010 -0.589023 1.057675 91.902257 3.259857 -16.437379 -7.309878 22.695034 20.237792 97.120145 -0.786264 6.821780 1.700418 0.101000 2.049100 5.641300 -8.959261 12.798188 -6.665266 -27.558139 -18.176088 112.607121 0.430986 -6.943920 -7.739445 -0.258400 3.270600 -9.033000 0.312354 -1.649513 -4.903445 -2.711687 -1.272771 -2.542954 16.874117 -6.164677 -17.085891 7.831000 -2.958100 0.060800 25.780169 -21.130382 -2.341410 13.929008 -19.696695 -2.863321 -0.262431 -1.701486 -3.077632 -7.125000 0.000000 0.000000 -26.329828 16.924351 21.388075 -17.050195 24.030839 -3.659723 -0.031929 0.582656 -31.043469 7.125000 0.000000 0.000000 
5.922098 10.426029 16.684280 -0.646774 0.969684 91.665695 2.999815 -16.326251 -7.183504 22.438001 20.272801 96.361840 -0.828804 7.115346 1.434914 0.109700 2.135300 5.879600 -8.498533 12.924486 -6.469360 -27.351336 -18.282313 111.939232 0.433724 -7.006100 -7.846083 -0.268300 3.331800 -9.203800 0.317402 -1.461417 -4.914218 -2.525381 -1.171313 -2.638866 16.928871 -6.281964 -17.385945 7.823200 -3.035700 -0.013300 24.871787 -21.450483 -1.994674 14.078317 -19.778234 -2.906072 -0.294505 -1.676579 -2.413586 -7.125000 0.000000 0.000000 -25.564724 16.665315 21.766089 -17.210796 24.156131 -3.714588 -0.029793 0.587451 -30.312045 7.125000 0.000000 0.000000 
5.921085 10.422381 16.665233 -0.711591 0.881979 91.420498 2.719398 -16.182861 -7.042006 22.158066 20.306788 95.538976 -0.873592 7.418826 1.155143 0.117900 2.213700 6.096600 -8.019435 13.044279 -6.235228 -27.121640 -18.394917 111.202809 0.432797 -7.030262 -7.926315 -0.279300 3.399300 -9.392500 0.308150 -1.386413 -4.905807 -2.477750 -1.131079 -2.669023 17.191929 -6.346490 -17.690740 7.926000 -3.070400 -0.053100 23.976274 -21.501663 -1.499679 14.251553 -19.903628 -2.958046 -0.319608 -1.646988 -1.809115 -7.125000 0.000000 0.000000 -24.834236 16.585648 21.969986 -17.373052 24.296093 -3.771580 -0.030734 0.594210 -29.659950 7.125000 0.000000 0.000000 
5.920071 10.419443 16.644971 -0.777876 0.798320 91.150311 2.425544 -16.016448 -6.870270 21.852963 20.337290 94.645478 -0.917664 7.709861 0.879164 0.126700 2.294800 6.321200 -7.507251 13.154252 -5.949478 -26.867398 -18.512143 110.394387 0.430297 -7.033154 -7.980399 -0.291300 3.470700 -9.592100 0.298621 -1.324248 -4.893109 -2.437526 -1.097912 -2.701401 17.504858 -6.411948 -17.994012 8.052100 -3.103800 -0.083400 23.076919 -21.512109 -0.968638 14.444055 -20.055204 -3.016608 -0.341633 -1.613496 -1.199718 -7.125000 0.000000 0.000000 -24.101051 16.519860 22.158683 -17.552891 24.459139 -3.835944 -0.032268 0.600189 -29.081025 7.125000 0.000000 0.000000 
5.919160 10.417822 16.623493 -0.835401 0.725284 90.849610 2.124268 -15.841850 -6.661065 21.521671 20.362946 93.678457 -0.960290 7.984109 0.621007 0.139500 2.407100 6.632100 -6.958679 13.239310 -5.604039 -26.586952 -18.632691 109.510496 0.427750 -7.032950 -8.023952 -0.302100 3.534100 -9.769600 0.288961 -1.277876 -4.876933 -2.413883 -1.073017 -2.741831 17.805900 -6.468340 -18.273783 8.167300 -3.132600 -0.103200 22.182328 -21.479724 -0.393401 14.653438 -20.229255 -3.081654 -0.360100 -1.578577 -0.636000 -7.125000 0.000000 0.000000 -23.369752 16.450959 22.378524 -17.769647 24.669341 -3.916921 -0.034597 0.605916 -28.657914 7.125000 0.000000 0.000000 
5.918248 10.417518 16.600900 -0.883441 0.656656 90.525908 1.808167 -15.662789 -6.417409 21.160985 20.383444 92.628014 -1.003444 8.257092 0.393257 0.156300 2.547000 7.020000 -6.392563 13.291042 -5.208471 -26.278486 -18.754822 108.546792 0.426455 -7.045343 -8.064891 -0.311300 3.586800 -9.917100 0.278658 -1.246257 -4.859000 -2.407729 -1.055464 -2.791790 18.052841 -6.513331 -18.505953 8.252100 -3.155700 -0.108200 21.297545 -21.400079 0.258610 14.877253 -20.422595 -3.153498 -0.375773 -1.544477 -0.237078 -7.125000 0.000000 0.000000 -22.636682 16.379068 22.624066 -18.028908 24.933086 -4.017610 -0.037582 0.611813 -28.384216 7.125000 0.000000 0.000000 
5.917843 10.418835 16.576990 -0.916683 0.587637 90.185003 1.474178 -15.486807 -6.142711 20.769838 20.398396 91.490206 -1.048018 8.533626 0.208059 0.179600 2.729700 7.527000 -5.828236 13.296735 -4.770941 -25.941729 -18.875763 107.504217 0.428058 -7.087513 -8.116397 -0.319800 3.634800 -10.051500 0.268139 -1.228387 -4.841293 -2.414912 -1.044447 -2.855301 18.223414 -6.537832 -18.716355 8.297400 -3.170200 -0.113000 20.428044 -21.274391 1.031045 15.114324 -20.633950 -3.232340 -0.388962 -1.513523 -0.110359 -7.125000 0.000000 0.000000 -21.905006 16.302413 22.910662 -18.332765 25.252352 -4.139566 -0.041153 0.617831 -28.237488 7.125000 0.000000 0.000000 
